PathFileType	4	(X/Y/Z)	C:/Users/beibeiliu/ov580/test_trc/User1\sequence.21_training_dense_right.trc
DataRate	CameraRate	NumFrames	NumMarkers	Units	OrigDataRate	OrigDataStartFrame	OrigNumFrames
120	120	23	19	mm	120	1	62
Frame#	Time	ThumbCMC			ThumbMCP			ThumbIP			ThumbTip			IndexMCP			IndexPIP			IndexTip			MiddleMCP			MiddlePIP			MiddleTip			RingMCP			RingPIP			RingTip			PinkyMCP			PinkyPIP			PinkyTip			BackHand1			BackHand2			BackHand3	
		X0	Y0	Z0	X1	Y1	Z1	X2	Y2	Z2	X3	Y3	Z3	X4	Y4	Z4	X5	Y5	Z5	X6	Y6	Z6	X7	Y7	Z7	X8	Y8	Z8	X9	Y9	Z9	X10	Y10	Z10	X11	Y11	Z11	X12	Y12	Z12	X13	Y13	Z13	X14	Y14	Z14	X15	Y15	Z15	X16	Y16	Z16	X17	Y17	Z17	X18	Y18	Z18	
0	0	133.605	13.4859	100.158	108.825	-3.857	83.9792	93.3511	-12.5542	62.3605	78.5419	-20.6154	49.944	141.351	19.8196	14.5967	139.43	15.6301	-15.2459	137.145	12.0095	-37.3427	173.078	18.8002	4.64637	169.588	9.7726	-24.3	173.823	-7.61881	-52.102	193.888	13.149	10.9832	195.924	4.43109	-18.5766	198.921	-13.1805	-41.5375	216.368	1.43056	30.2695	225.914	-4.99881	10.573	232.959	-10.1854	-10.8694	193.088	27.8995	65.3767	194.801	38.249	99.2337	160.01	36.3612	83.2877	
1	0.00833333	129.856	12.7919	96.3152	112.239	-4.55547	84.8582	93.7087	-12.5942	61.2829	75.7182	-21.0033	54.3483	140.048	19.1805	15.5064	136.095	17.5332	-13.7768	139.684	11.6451	-40.3139	167.894	19.147	6.39774	167.5	8.75753	-27.1639	172.025	-7.28446	-53.3316	190.324	14.0887	9.53592	199.151	6.10734	-14.7022	196.719	-11.1779	-40.5271	214.231	1.83865	31.6061	224.958	-4.65158	10.2276	227.776	-10.8883	-14.0077	191.263	27.7064	66.3863	193.393	37.3626	99.75	157.578	36.9489	80.9625	
2	0.0166667	128.833	13.2833	101.815	111.86	-4.7486	82.4738	92.1705	-12.2007	62.9165	77.4574	-19.9745	51.9939	140.007	19.7697	15.2434	135.152	18.2166	-9.82036	140.055	12.8907	-36.978	167.586	19.0757	1.48144	166.747	9.761	-26.6269	171.939	-7.61991	-54.2385	192.9	14.8878	11.2542	194.908	7.54896	-14.6301	197.45	-10.0971	-38.9217	214.179	3.64066	29.9369	223.583	-3.83155	12.7662	227.087	-7.95941	-10.4845	191.619	28.4627	65.3286	195.767	38.4607	96.8695	159.197	37.8927	82.4304	
3	0.025	127.935	14.0671	98.564	110.164	-3.48068	85.3881	92.6499	-11.255	61.2124	75.1865	-19.9497	51.9356	138.336	20.9268	16.8885	135.535	18.5427	-14.4151	141.365	13.5565	-38.9949	172.138	20.3753	3.50523	171.4	9.8144	-27.8022	174.835	-7.38105	-52.295	191.898	16.6233	9.22312	196.881	7.44711	-18.9056	196.627	-9.56006	-39.7917	214.144	4.32068	30.8676	222.213	-2.17711	13.946	229.215	-8.52184	-14.0443	189.294	30.8842	64.8906	194.937	37.3054	99.5805	155.765	37.2735	78.9254	
4	0.0333333	126.977	15.6009	96.5699	111.136	-2.48053	83.435	92.6531	-10.0675	62.1966	75.7879	-19.1543	50.3039	140.359	22.1512	12.4747	136.049	20.6523	-11.9828	142.15	14.0878	-38.8108	167.855	21.8857	6.04864	169.693	10.1588	-28.2109	172.166	-5.08155	-51.9964	191.556	16.2423	13.6614	194.359	7.52435	-19.9586	197.254	-9.01667	-42.2161	215.369	4.11007	33.2532	223.761	-2.38493	8.90338	229.432	-8.76075	-14.3588	190.5	30.6299	67.4893	198.12	39.574	98.4132	161.745	38.0623	81.6751	
5	0.0416667	127.981	15.0486	95.0995	113.374	-2.73382	81.9096	96.109	-10.5927	65.2281	78.2309	-18.4271	52.9353	137.82	21.5344	13.7575	140.561	19.7724	-14.8845	136.499	15.4308	-41.8534	170.791	21.4802	5.45898	172.73	11.9802	-25.4705	172.347	-4.23094	-50.7905	191.251	16.3798	9.63678	198.277	8.81647	-17.2987	196.125	-7.51109	-38.6231	217.828	3.88105	29.8364	222.111	-0.724918	11.8153	232.397	-7.0433	-15.4796	194.851	29.6593	64.2199	195.387	38.5539	95.4455	161.363	37.8207	77.3225	
6	0.05	130.175	14.481	95.6346	109.914	-1.95596	84.0216	90.5482	-9.93074	64.1724	74.6443	-18.7228	55.7716	138.879	21.3241	13.1438	135.056	19.9085	-15.1441	141.658	14.7342	-40.8183	167.863	21.6482	3.73449	170.106	11.3057	-25.6559	172.93	-5.73737	-52.4609	195.3	16.5884	9.66331	199.318	8.12068	-17.4572	199.877	-7.75734	-38.7693	214.663	4.64985	31.6498	226.435	-3.02915	10.8452	232.785	-7.8278	-15.2213	191.091	31.6965	66.7392	192.854	39.0065	97.6293	158.792	37.514	78.0321	
7	0.0583333	128.953	14.5838	100.178	109.919	-2.51789	83.7608	91.8267	-10.7306	65.0281	73.9064	-19.0505	53.6887	136.413	22.412	12.7997	137.703	18.5511	-16.868	138.739	14.5547	-43.2044	169.453	20.7342	2.20817	169.529	10.4449	-26.8631	174.758	-8.32372	-55.6934	195.373	15.8967	9.06147	199.571	7.52342	-18.5876	196.13	-6.97465	-39.2966	214.483	5.38521	32.6884	222.435	-0.922767	13.0129	232.583	-5.69929	-13.0638	190.028	32.4934	62.5355	193.591	39.8156	99.6201	156.485	38.9127	81.4937	
8	0.0666667	131.352	14.5965	95.6162	110.305	-3.16273	84.032	95.3779	-11.5325	65.1184	77.5043	-22.3872	52.0744	138.091	25.6016	12.5476	135.979	23.3377	-14.9588	139.546	15.4365	-38.6521	169.221	25.6703	4.35226	168.745	13.1127	-28.4891	169.16	-3.9362	-49.517	190.753	20.9319	12.9921	194.021	12.0044	-16.4456	194.032	-7.99976	-41.2309	215.126	7.68138	30.5744	219.842	0.3017	8.47116	228.275	-7.42871	-12.9357	194.591	33.8439	65.0253	197.355	38.7775	97.6975	160.626	39.0955	83.8765	
9	0.075	130.548	18.4987	101.802	111.237	-1.09163	81.0129	98.171	-8.9648	59.9928	86.6241	-21.5707	38.1918	140.752	40.1035	16.3517	134.888	37.5961	-10.3822	136.138	18.1636	-38.0542	165.185	40.6911	4.95197	165.095	26.8906	-26.9934	161.377	2.70141	-45.4396	190.183	32.2665	14.3882	188.846	23.5226	-16.7587	183.982	-1.099	-36.1099	214.916	15.7291	29.4997	215.642	9.31874	4.83028	210.359	-2.31979	-19.801	190.709	36.6893	70.4244	199.048	39.4174	99.3589	164.453	45.4534	88.3585	
10	0.0833333	135.644	29.6826	99.814	111.553	13.9693	73.3148	104.677	6.30177	46.7623	111.548	-3.7797	19.8482	142.848	65.7282	27.844	136.815	61.8566	-8.24637	135.095	33.5131	-22.2622	169.163	64.4777	12.6074	164.983	53.2265	-19.0964	153.042	18.3104	-26.0714	191.364	53.2398	14.4249	184.89	43.0757	-14.9572	172.732	13.5101	-22.8006	212.589	31.549	28.4048	205.649	26.9926	1.98841	186.411	6.81231	-16.1652	194.944	47.2036	76.3989	202.91	44.3266	107.72	168.138	53.3249	94.9928	
11	0.0916667	136.814	42.9974	106.259	118.512	37.8835	72.9382	116.186	37.8592	38.2478	133.51	28.8897	13.7816	145.154	94.2796	34.9421	137.909	85.9892	2.64945	125.429	52.9225	4.55379	168.742	90.6175	24.9385	157.449	76.8997	-8.51964	142.154	43.1646	0.98334	190.619	76.7683	20.4671	178.828	63.9868	-7.47369	161.537	33.9888	0.114474	203.897	55.3243	27.1491	191.749	46.0929	2.21312	169.817	24.3149	1.94789	200.406	62.1727	76.505	205.564	49.3279	109.432	169.453	69.1403	99.9973	
12	0.1	136.605	55.174	107.81	119.957	55.0143	71.9011	123.026	56.2357	42.2631	144.205	49.7025	19.5841	146.314	112.75	40.2001	136.021	98.5404	12.4972	123.842	70.5609	22.3962	168.545	108.751	27.099	154.977	87.3605	2.28839	146.29	58.7569	22.2812	188.586	91.9065	23.1576	173.174	72.693	-0.556351	158.569	49.0449	17.7015	204.138	69.2348	27.57	183.845	60.1608	9.04444	163.787	38.3092	20.9384	202.824	73.7585	83.13	207.072	53.9419	110.159	175.03	77.343	109.724	
13	0.108333	143.525	55.6514	103.129	123.592	55.6737	67.9716	132.216	59.6549	39.6419	153.712	51.3999	20.4303	151.869	110.516	41.7663	139.938	95.6739	13.5838	130.537	64.8925	33.199	176.594	107.078	29.6647	159.576	88.444	4.21516	154.127	58.0666	32.3724	193.192	92.194	21.0358	173.095	75.4533	4.1989	167.499	49.3742	22.1968	209.343	70.26	29.2798	186.408	56.1898	11.0263	170.322	39.0267	27.587	205.676	73.4962	86.1402	210.379	55.7068	110.022	176.775	77.3882	110.633	
14	0.116667	145.504	45.7257	98.8748	125.497	42.3381	63.3115	137.459	46.9119	34.3845	167.595	41.3972	17.4937	152.205	100.76	32.5707	145.008	78.7049	9.07537	137.667	53.7491	29.7794	175.218	96.7903	24.0341	166.463	74.6084	0.44036	160.866	47.4785	30.8125	198.699	80.8902	18.3995	180.748	56.2701	1.58961	175.43	36.7343	28.6688	213.492	61.4517	27.2574	196.962	43.8263	7.81668	179.708	23.527	32.564	211.951	67.9558	81.561	212.422	50.8598	111.12	178.771	70.6735	102.646	
15	0.125	145.42	41.4263	95.9876	128.532	34.9573	61.2479	136.411	33.9528	31.3122	163.52	23.2899	17.0713	158.315	84.6634	22.9051	146.343	61.8079	1.91045	137.12	40.893	26.6801	180.764	75.911	11.3993	163.385	50.8971	-3.67193	158.602	31.785	27.5902	197.067	59.6168	10.682	185.322	33.0351	-3.56682	176.512	16.943	27.9882	215.007	37.9407	20.8126	195.229	18.8874	8.22974	177.349	6.82842	34.6919	216.431	54.1868	76.0271	218.091	41.6259	104.359	182.754	60.4362	98.5228	
16	0.133333	151.078	50.8703	92.844	126.463	50.8575	58.9982	134.2	38.0856	29.9624	148.784	12.3417	20.6653	171.035	67.1553	9.13554	147.706	51.8706	-6.46296	132.011	40.6599	25.572	185.456	49.1422	3.38312	157.009	32.4713	-9.00946	148.916	21.9008	27.3567	192.465	25.6513	7.78765	162.179	8.31241	-0.202179	154.144	6.81656	33.4298	199.124	0.41201	20.6638	167.501	-5.95593	14.375	153.925	-0.814221	43.1835	212.651	27.7218	68.8259	213.088	20.1927	102.056	191.037	51.4404	89.5054	
17	0.141667	168.046	63.0295	83.933	144.281	67.1543	52.5139	132.145	54.3471	29.3162	125.631	23.8643	23.9547	177.477	40.5339	0.108121	147.198	41.0198	-11.5557	131.902	51.2589	17.4041	173.105	16.7917	-3.36272	139.069	22.5987	-7.22312	134.739	33.3184	28.6047	165.891	-0.297203	5.20657	130.755	3.15327	5.86511	130.023	15.3271	34.5097	158.398	-19.1405	23.2167	130.482	-8.14904	20.3574	123.307	6.99111	47.2444	194.001	-3.3085	66.2979	195.499	-1.47214	102.257	197.129	36.1422	80.5655	
18	0.15	186.628	59.9139	81.4683	164.529	70.2073	46.0913	144.944	62.2074	25.5111	122.923	35.5516	22.4442	181.987	26.3995	-0.726054	154.104	35.4102	-15.4732	142.884	56.1457	15.7282	165.618	5.72767	-4.1128	137.521	20.679	-9.89697	136.672	36.4605	28.4306	148.992	-11.8692	12.1625	123.242	9.41302	2.50788	126.028	26.2589	34.1582	138.207	-20.3924	32.1889	117.796	2.1592	20.2998	116.912	21.1886	42.0845	178.094	-11.7992	67.2886	180.149	-6.65282	101.812	197.972	16.1235	78.0387	
19	0.158333	201.236	54.0191	78.5445	183.645	64.8856	44.4565	165.78	58.9181	24.3704	139.992	38.6556	18.6242	198.484	18.4197	3.87196	175.104	33.1978	-16.4591	167.496	57.019	7.70564	175.737	-2.53423	-1.09559	154.548	21.9628	-10.9485	155.105	40.1441	24.7896	158.333	-11.6288	8.09664	140.179	14.0378	-1.71753	141.624	29.905	30.4645	146.434	-17.3655	32.4114	130.673	1.56974	13.4964	133.943	29.8064	34.2099	181.697	-14.6615	68.4452	181.079	-10.7843	102.464	204.583	9.97018	83.6189	
20	0.166667	213.748	51.4613	81.8973	203.209	66.2804	48.3781	189.976	58.6303	18.5991	170.591	33.1103	15.687	226.443	15.2049	9.18549	209.987	32.8644	-13.5175	196.256	55.3642	9.70552	214.601	-2.53066	5.55833	191.627	16.8646	-14.2111	184.462	39.9373	22.1307	194.072	-14.0248	8.54156	174.629	10.3294	-5.55235	164.636	24.2298	21.3248	173.435	-23.5756	27.0118	162.437	-5.42144	6.40271	154.498	24.3584	22.6675	198.357	-18.456	76.8309	193.964	-12.2592	108.318	224.622	13.2212	85.3053	
21	0.175	222.569	60.164	87.4139	213.086	67.7031	49.706	208.767	60.9611	19.4909	196.733	33.7463	10.6036	257.137	35.6767	14.5365	239.032	46.4793	-6.80649	212.95	63.7449	18.7196	251.573	13.0935	9.42742	227.227	31.9712	-9.02909	206.531	41.1875	23.3188	235.374	-6.07623	9.83027	214.548	10.1206	-6.50124	193.574	22.7116	17.8966	218.632	-18.714	22.6828	205.837	-1.24781	4.50179	186.559	21.1494	17.33	232.511	-7.47005	79.9394	218.104	-7.79483	108.678	240.735	20.9833	95.9863	
22	0.183333	208.718	65.5347	92.3998	197.749	71.7351	56.3633	206.435	66.1768	23.381	213.613	38.1545	11.5681	257.278	79.7803	25.2311	234.287	76.7678	2.78662	207.084	68.134	23.2636	266.836	53.7788	20.3921	240.185	55.0087	-3.80969	213.634	47.8213	27.3237	265.276	29.4311	18.4633	239.093	34.2595	-4.39856	212.991	26.7241	18.1841	256.893	12.7446	24.807	237.949	15.5421	4.0529	207.555	25.3574	17.7545	260.976	20.4779	79.5483	242.052	8.43654	111.207	246.382	46.827	98.733	
